# xmcd
#
# Track frame offsets: 
#        150
#        16644
#        40998
#        65417
#        85639
#        105069
#        127464
#        151277
#        171555
#        202888
#        227510
#        249640
#
# Disc length: 3638 seconds
#
# Revision: 0
# Processed by: cddbd v1.5.2PL0 Copyright (c) Steve Scherf et al.
# Submitted via: ExactAudioCopy v1.0b1
#
DISCID=900e340c
DTITLE=Adika Pongo - Groovin Up! Hits: 1997-2011
DYEAR=2011
DGENRE=Soul
TTITLE0=Diamonds
TTITLE1=Forever (duet with Baruch "darling" Chadwick)
TTITLE2=Non Lasciarmi Andare (Don't Let Me Go)
TTITLE3=Everybody (Keep On Movin') (duet with Baruch "Darling" Chadwic
TTITLE3=k)
TTITLE4=Good Day (feat. Norma Jean Wright and Luci Martin)
TTITLE5=Chill Out
TTITLE6=Lets Be Alone Together
TTITLE7=The Look In Your Eye
TTITLE8=Aint Gonna Last mastered
TTITLE9=Make the Move
TTITLE10=We Got Each Other
TTITLE11=Goodbye To Yesterday
EXTD=
EXTT0=
EXTT1=
EXTT2=
EXTT3=
EXTT4=
EXTT5=
EXTT6=
EXTT7=
EXTT8=
EXTT9=
EXTT10=
EXTT11=
PLAYORDER=
